<?xml version="1.0" encoding="utf-8"?>
<!-- Generator: Adobe Illustrator 25.3.0, SVG Export Plug-In . SVG Version: 6.00 Build 0)  -->
<svg version="1.1" id="Capa_1" xmlns="http://www.w3.org/2000/svg" xmlns:xlink="http://www.w3.org/1999/xlink" x="0px" y="0px"
	 viewBox="0 0 566.9 566.9" style="enable-background:new 0 0 566.9 566.9;" xml:space="preserve">
<style type="text/css">
	.st0{fill:#E8E2D7;}
	.st1{fill:#712209;}
</style>
<circle class="st0" cx="284.4" cy="283.5" r="280.8"/>
<g transform="translate(0.000000,500.000000) scale(0.100000,-0.100000)">
	<g>
		<path class="st1" d="M2434.7,4450.6c-320.6-43.3-721.4-166.8-1009.5-311.9c-294.6-149.5-699.7-457.1-769-584.9
			c-69.3-127.8-8.7-309.8,130-383.4c58.5-32.5,331.4,93.1,541.6,249.1c305.4,223.1,745.2,407.3,1124.3,470.1
			c73.7,10.8,255.6,21.7,400.8,21.7c556.7,0,1098.3-179.8,1531.5-511.2c132.1-101.8,370.4-225.3,433.2-225.3
			c65,0,162.5,65,197.1,134.3c23.8,45.5,32.5,99.6,23.8,166.8c-10.8,88.8-26,114.8-147.3,227.5
			c-251.3,236.1-706.2,500.4-1063.6,617.4c-283.8,93.1-532.9,134.3-894.7,143C2742.3,4468,2519.2,4463.6,2434.7,4450.6z"/>
		<path class="st1" d="M2447.7,3337.2c-216.6-49.8-344.4-95.3-548.1-199.3c-201.5-104-487.4-329.3-476.6-376.9
			c10.8-58.5,1401.6-3355.5,1414.6-3355.5c6.5,0,331.4,758.2,721.4,1685.3c502.6,1191.4,704,1691.8,688.9,1715.7
			c-32.5,56.3-314.1,257.8-480.9,346.6c-279.4,145.1-502.6,197.1-866.5,208C2677.4,3367.5,2545.2,3361,2447.7,3337.2z M3587.2,2800
			c41.2-39,58.5-84.5,67.2-162.5c8.7-95.3,2.2-114.8-52-175.5c-82.3-88.8-171.1-114.8-279.4-75.8c-201.5,67.2-234,305.4-62.8,439.7
			C3346.7,2893.1,3507,2880.1,3587.2,2800z M2790,2327.7c277.3-153.8,240.5-565.4-60.7-658.5c-266.4-82.3-519.9,138.6-470.1,409.4
			C2304.8,2319,2577.7,2449,2790,2327.7z M2998,1173.1c88.8-36.8,140.8-130,140.8-253.4c0-71.5-13-101.8-73.7-162.5
			c-62.8-62.8-88.8-73.7-175.5-73.7c-86.6,0-112.6,10.8-175.5,73.7s-73.7,88.8-73.7,173.3c0,119.1,47.7,201.5,140.8,242.6
			C2865.8,1209.9,2907,1209.9,2998,1173.1z"/>
	</g>
</g>
</svg>
